<?xml version="1.0" encoding="UTF-8" standalone="no"?>
<!-- Created with Inkscape (http://www.inkscape.org/) -->
<svg xmlns:inkscape="http://www.inkscape.org/namespaces/inkscape" xmlns:rdf="http://www.w3.org/1999/02/22-rdf-syntax-ns#" xmlns="http://www.w3.org/2000/svg" xmlns:xlink="http://www.w3.org/1999/xlink" xmlns:ns1="http://sozi.baierouge.fr" xmlns:cc="http://creativecommons.org/ns#" xmlns:sodipodi="http://sodipodi.sourceforge.net/DTD/sodipodi-0.dtd" xmlns:dc="http://purl.org/dc/elements/1.1/" id="svg2" xml:space="preserve" viewBox="0 0 50.682 24.274" version="1.1" inkscape:version="0.91 r13725">
  <defs id="defs6">
    <clipPath id="clipPath18">
      <path id="path20" d="m0-0.58052h41v9h-41v-9z" inkscape:connector-curvature="0"/>
    </clipPath>
    <mask id="mask22">
      <g id="g24">
        <g id="g26" clip-path="url(#clipPath18)">
          <path id="path28" style="fill:#000000;fill-opacity:.14060" d="m0-0.58052h41v9h-41v-9z" inkscape:connector-curvature="0"/>
        </g>
      </g>
    </mask>
    <clipPath id="clipPath34">
      <path id="path36" d="m0-0.58052h41v9h-41v-9z" inkscape:connector-curvature="0"/>
    </clipPath>
    <clipPath id="clipPath38">
      <path id="path40" d="m0 0h41v9h-41v-9z" inkscape:connector-curvature="0"/>
    </clipPath>
  </defs>
  <g id="g10" transform="matrix(1.25 0 0 -1.25 0 24.274)">
    <g id="g12">
      <g id="g14">
        <g id="g30" mask="url(#mask22)">
          <g id="g42">
            <g id="g44" clip-path="url(#clipPath34)">
              <g id="g46" transform="translate(0 -.58052)">
                <g id="g50">
                  <g id="g52" clip-path="url(#clipPath38)">
                    <g id="g54">
                      <path id="path56" style="fill-rule:evenodd;fill:#000000" d="m38.633 7.121c0.027 0 0.082-0.043 0.16-0.121 0.641-0.188 1.203-0.426 1.68-0.719 0.136-0.082 0.082-0.203-0.161-0.359-0.398-0.188-0.703-0.348-0.917-0.481-0.243-0.136-0.493-0.253-0.762-0.363-0.559-0.211-0.906-0.344-1.039-0.398-0.375-0.133-0.625-0.282-0.758-0.442-0.215-0.265-0.402-0.465-0.563-0.597-0.265-0.215-0.414-0.414-0.437-0.602-0.027-0.105-0.137-0.184-0.32-0.238-1.121-0.16-2.055-0.336-2.801-0.52-0.613-0.215-1.067-0.359-1.36-0.441-0.507-0.133-1.121-0.238-1.839-0.32-0.082 0-0.989-0.172-2.723-0.52-1.199-0.238-2.344-0.375-3.438-0.398-1.066-0.028-1.722-0.028-1.96 0-1.094 0.16-1.786 0.25-2.083 0.277-1.144 0.133-1.933 0.176-2.359 0.121-0.398-0.105-0.801-0.172-1.199-0.199-0.879-0.055-1.574-0.082-2.078-0.082-0.961-0.024-1.867 0-2.723 0.082-0.851 0.105-1.398 0.199-1.641 0.277-0.21 0.16-0.476 0.309-0.796 0.442-0.481 0.292-0.868 0.546-1.161 0.761-0.562 0.344-1.335 0.598-2.32 0.758-0.801 0.106-1.375 0.387-1.723 0.84-0.292 0.402-0.839 0.601-1.636 0.601-0.27 0-0.457 0.145-0.563 0.442-0.105 0.293-0.039 0.465 0.199 0.519 0.188 0.079 0.122 0.254-0.199 0.52-0.051 0.051-0.371 0.293-0.961 0.719-0.238 0.187-0.199 0.347 0.121 0.48 0.161 0.078 0.403 0.172 0.723 0.281 0.293 0.184 1.199 0.305 2.719 0.36 0.504 0.027 0.867 0.105 1.078 0.238 0.293 0.215 0.547 0.348 0.762 0.402 0.507 0.106 2.453-0.027 5.84-0.402 2.613-0.238 5.226-0.332 7.839-0.277 8.293 0.105 13.828 0 16.602-0.321 1.543-0.187 2.476-0.296 2.797-0.32z" inkscape:connector-curvature="0"/>
                    </g>
                  </g>
                </g>
              </g>
            </g>
          </g>
        </g>
      </g>
      <path id="path58" style="fill-rule:evenodd;fill:#9f9fa1" d="m34.836 4.021c-2.828-1.254-5.242-2.066-7.242-2.441-1.946-0.375-3.906-0.493-5.879-0.36-1.84 0.239-3.094 0.36-3.762 0.36-0.293 0-1.348-0.133-3.16-0.399-1.438-0.215-2.785-0.226-4.039-0.043-1.332 0.188-3.199 1.094-5.598 2.719-1.23 0.801-2.308 1.59-3.242 2.363 1.895 1.547 4.176 3.703 6.84 6.477 1.226 1.281 2.359 2.828 3.402 4.64 0.614 1.067 1.344 1.68 2.199 1.84 1.145 0.242 2.293 0.176 3.438-0.199 1.094-0.371 1.961-0.918 2.602-1.637l3-3.601c1.492-1.735 2.492-2.696 3-2.879 0.8-0.32 2.8-0.016 6 0.918l1.96-2.598c1.387-1.789 2.333-2.773 2.84-2.961l1.239-0.48c-1.012-0.535-2.211-1.106-3.598-1.719z" inkscape:connector-curvature="0"/>
      <path id="path60" style="fill-rule:evenodd;fill:#858687" d="m32.395 11.779 0.281-0.078c0.211-0.082 0.398-0.203 0.558-0.36 0.133-0.136 0.266-0.308 0.399-0.523 0.16-0.32 0.336-0.598 0.523-0.84 0.239-0.293 0.371-0.453 0.399-0.48h0.117c0.055-0.024 0.414-0.543 1.082-1.559 0.242-0.375 0.48-0.652 0.719-0.84l2.32-1.402-0.438-0.356c-0.613-0.507-1.562-0.922-2.839-1.242-0.481-0.105-0.989-0.308-1.52-0.601-0.723-0.344-1.148-0.547-1.281-0.598-0.828-0.453-1.719-0.816-2.68-1.082-0.988-0.293-1.734-0.508-2.242-0.641-0.906-0.238-1.625-0.371-2.16-0.398h-3.278c-1.523 0-2.562 0.027-3.121 0.078-0.562 0.109-1.015 0.176-1.359 0.203-0.801-0.027-1.48-0.043-2.043-0.043-1.68-0.16-3.133-0.238-4.359-0.238-0.801 0-2.028 0.414-3.68 1.238-1.414 0.723-2.438 1.348-3.078 1.883l-2.801 2.32 1.879-0.883c0.719-0.347 1.309-0.507 1.762-0.48 0.343-0.078 0.597-0.105 0.757-0.078 0.083 0 0.227 0.012 0.442 0.039 0.187 0 0.387-0.106 0.601-0.32 0.106-0.133 0.266-0.332 0.477-0.602 0.188-0.184 0.375-0.305 0.563-0.355 0.105-0.028 0.398-0.071 0.878-0.122 0.293-0.027 0.641-0.132 1.039-0.32 0.536-0.242 1-0.414 1.403-0.519 0.586-0.133 1.117-0.055 1.597 0.238 0.376 0.215 0.762 0.629 1.161 1.242 0.242 0.371 0.386 0.934 0.441 1.68 0.078 0.828 0.188 1.402 0.32 1.719 0.321 0.855 0.438 2.148 0.36 3.882-0.055 1.172 0.054 2.918 0.32 5.239l0.961 0.64c0.023 0.028 0.211 0.078 0.559 0.16 0.32 0.051 0.574 0.2 0.761 0.438 0.293 0.402 0.825 0.469 1.598 0.203l0.762-0.562c0.531-0.399 0.879-0.719 1.039-0.961 0.082-0.106 0.414-0.454 1-1.039 0.215-0.211 0.586-0.641 1.121-1.278 0.664-0.801 1.105-1.387 1.32-1.762 0.293-0.558 0.746-1.078 1.36-1.558-1.016-0.988-1.696-1.613-2.04-1.883-0.214-0.133-0.429-0.453-0.64-0.957-0.32-0.801-0.563-1.336-0.723-1.602-0.293-0.507-0.359-0.96-0.199-1.359 0.082-0.187 0.187-0.32 0.32-0.402l1.242-0.078c0.399-0.028 0.774-0.055 1.118-0.082 0.242 0 0.574 0.109 1 0.32 0.773 0.348 1.215 0.547 1.32 0.601 0.398 0.239 0.746 0.575 1.039 1 0.453 0.641 0.988 1.625 1.602 2.961 0.453 0.801 1.109 1.598 1.961 2.399z" inkscape:connector-curvature="0"/>
      <path id="path62" style="fill-rule:evenodd;fill:#858687" d="m10.273 7.099c0.586 0 0.895-0.187 0.922-0.558 0-0.348-0.187-0.653-0.562-0.922-0.238-0.184-0.426-0.25-0.559-0.2-0.215 0.083-0.453 0.133-0.719 0.161-0.402 0.027-0.468 0.281-0.199 0.761 0.266 0.504 0.637 0.758 1.117 0.758z" inkscape:connector-curvature="0"/>
      <path id="path64" style="fill-rule:evenodd;fill:#858687" d="m9.195 8.619c0.481 0.215 0.653 0.16 0.52-0.16-0.106-0.293-0.348-0.52-0.719-0.68-0.348-0.16-0.469-0.094-0.363 0.199 0.082 0.27 0.269 0.481 0.562 0.641z" inkscape:connector-curvature="0"/>
      <path id="path66" style="fill-rule:evenodd;fill:#858687" d="m12.914 14.138c0.719 0.242 1.039-0.094 0.961-1-0.055-0.879-0.496-1.32-1.32-1.32-0.774 0-1.055 0.348-0.84 1.043 0.187 0.637 0.586 1.066 1.199 1.277z" inkscape:connector-curvature="0"/>
      <path id="path68" style="fill-rule:evenodd;fill:#858687" d="m25.793 8.619c0.562 0.109 0.988 0 1.281-0.321 0.266-0.316 0.215-0.625-0.16-0.918-0.371-0.32-0.641-0.535-0.801-0.64-0.238-0.16-0.57-0.199-1-0.121-0.504 0.082-0.64 0.414-0.398 1 0.238 0.562 0.597 0.894 1.078 1z" inkscape:connector-curvature="0"/>
      <path id="path70" style="fill-rule:evenodd;fill:#858687" d="m28.234 9.459c0.239 0.027 0.414-0.067 0.52-0.278 0.082-0.215-0.039-0.402-0.359-0.562-0.348-0.211-0.559-0.145-0.641 0.199-0.051 0.348 0.105 0.562 0.48 0.641z" inkscape:connector-curvature="0"/>
      <path id="path72" style="fill-rule:evenodd;fill:#b8b8ba" d="m18.953 18.619 0.84-0.598c-0.504 0.023-0.84 0.023-1 0-0.078-0.027-0.184-0.137-0.32-0.32-0.078-0.137-0.293-0.254-0.637-0.36l-0.723-0.16c-0.16-0.054-0.293-0.137-0.398-0.242l-0.16-0.16c-0.082-0.027-0.16-0.055-0.243-0.078-0.183-0.082-0.292-0.176-0.316-0.282-0.16-0.425-0.242-1.32-0.242-2.679l-0.039-4.199c-0.266 1.011-0.403 1.679-0.403 2 0 0.132-0.066 0.425-0.199 0.878-0.105 0.481-0.172 0.829-0.199 1.04-0.027 0.242 0.039 0.574 0.199 1 0.188 0.48 0.282 0.773 0.282 0.882 0.054 0.719-0.094 1.157-0.442 1.317-0.183 0.109-0.332 0.148-0.437 0.121-0.082-0.055-0.149-0.078-0.204-0.078l-1.156 0.16c-0.082 0-0.187-0.055-0.32-0.16-0.215-0.16-0.402-0.282-0.563-0.36-0.16-0.109-0.253-0.226-0.277-0.363-0.082-0.293-0.215-0.598-0.402-0.918-0.215-0.348-0.492-0.668-0.84-0.961-0.453-0.375-0.801-0.707-1.039-1-0.559-0.668-1.32-1.254-2.281-1.758l0.921 1.078c0.504 0.747 0.946 1.387 1.321 1.922 0.16 0.266 0.437 0.625 0.84 1.078 0.32 0.399 0.519 0.68 0.597 0.84 0.16 0.293 0.641 1 1.442 2.121l0.359 0.278c0.535 0.402 1.016 0.574 1.441 0.523 0.106 0 0.321 0.039 0.641 0.117 0.371 0.082 0.703 0.121 1 0.121 0.399 0 0.934-0.093 1.598-0.281 0.562-0.16 1.015-0.332 1.359-0.519z" inkscape:connector-curvature="0"/>
      <path id="path74" style="fill-rule:evenodd;fill:#b8b8ba" d="m32.953 11.658c-0.238 0.027-0.398 0.015-0.48-0.039l-0.559-0.719c-0.078-0.055-0.16-0.121-0.238-0.199-0.188-0.16-0.321-0.321-0.403-0.481l-2.437-3.801c0.586 1.227 0.934 2 1.039 2.321 0.055 0.265 0.187 0.558 0.398 0.879 0.161 0.242 0.243 0.402 0.243 0.48-0.055 0.082-0.094 0.176-0.121 0.281-0.028 0.133-0.215 0.227-0.559 0.278l-2.402 0.121 1.363 0.242c0.476 0.023 1.066 0.094 1.758 0.199 0.265 0.028 0.492 0.106 0.679 0.239 0.215 0.132 0.454 0.226 0.723 0.281 0.531 0.078 0.863 0.054 0.996-0.082z" inkscape:connector-curvature="0"/>
      <path id="path76" style="fill-rule:evenodd;fill:#9f9fa1" d="m18.914 13.818c0.426 0.348 0.828 0.535 1.199 0.562 0.266 0.028 0.52-0.066 0.762-0.281 0.266-0.238 0.266-0.48 0-0.719-0.242-0.187-0.375-0.281-0.402-0.281-0.078 0.028-0.157 0.028-0.239 0-0.347-0.16-0.652-0.519-0.922-1.078-0.183-0.457-0.464-0.867-0.839-1.242-0.051-0.055-0.145 0.055-0.278 0.32-0.133 0.293-0.187 0.492-0.16 0.602 0.078 0.691 0.16 1.16 0.238 1.398 0.055 0.188 0.266 0.426 0.641 0.719z" inkscape:connector-curvature="0"/>
      <path id="path78" style="fill-rule:evenodd;fill:#9f9fa1" d="m19.953 9.259c0.402 0.106 0.613-0.132 0.641-0.718 0-0.266-0.067-0.735-0.199-1.399-0.055-0.269-0.149-0.387-0.282-0.363-0.265 0.027-0.414 0.043-0.437 0.043-0.16-0.055-0.336 0.09-0.52 0.437-0.136 0.243-0.215 0.469-0.242 0.684-0.027 0.184 0.039 0.41 0.199 0.68 0.188 0.343 0.469 0.558 0.84 0.636z" inkscape:connector-curvature="0"/>
      <path id="path80" style="fill-rule:evenodd;fill:#9f9fa1" d="m34.156 8.099c0.133-0.027 0.239-0.105 0.317-0.238 0.082-0.188 0.027-0.348-0.161-0.481-0.105-0.082-0.277-0.148-0.519-0.199-0.133-0.027-0.359-0.226-0.68-0.601-0.105-0.106-0.558-0.469-1.359-1.082-0.082-0.079-0.051 0.121 0.082 0.601 0.16 0.559 0.387 0.973 0.68 1.242 0.132 0.106 0.347 0.305 0.64 0.598 0.317 0.188 0.653 0.242 1 0.16z" inkscape:connector-curvature="0"/>
      <path id="path82" style="fill-rule:evenodd;fill:#9f9fa1" d="m17.875 6.259c0.215 0.082 0.359-0.027 0.437-0.32 0.083-0.266 0.083-0.508 0-0.719-0.05-0.133-0.117-0.215-0.199-0.238-0.183-0.055-0.293-0.082-0.32-0.082-0.133-0.055-0.266 0.012-0.398 0.199-0.106 0.188-0.149 0.348-0.122 0.481 0.055 0.32 0.254 0.547 0.602 0.679z" inkscape:connector-curvature="0"/>
    </g>
  </g>
<metadata><rdf:RDF><cc:Work><dc:format>image/svg+xml</dc:format><dc:type rdf:resource="http://purl.org/dc/dcmitype/StillImage"/><cc:license rdf:resource="http://creativecommons.org/licenses/publicdomain/"/><dc:publisher><cc:Agent rdf:about="http://openclipart.org/"><dc:title>Openclipart</dc:title></cc:Agent></dc:publisher></cc:Work><cc:License rdf:about="http://creativecommons.org/licenses/publicdomain/"><cc:permits rdf:resource="http://creativecommons.org/ns#Reproduction"/><cc:permits rdf:resource="http://creativecommons.org/ns#Distribution"/><cc:permits rdf:resource="http://creativecommons.org/ns#DerivativeWorks"/></cc:License></rdf:RDF></metadata></svg>
